<?xml version="1.0" standalone="no"?>
<!DOCTYPE svg PUBLIC "-//W3C//DTD SVG 20010904//EN"
 "http://www.w3.org/TR/2001/REC-SVG-20010904/DTD/svg10.dtd">
<svg version="1.0" xmlns="http://www.w3.org/2000/svg"
 width="500.000000pt" height="500.000000pt" viewBox="0 0 500.000000 500.000000"
 preserveAspectRatio="xMidYMid meet">

<g transform="translate(0.000000,500.000000) scale(0.100000,-0.100000)"
fill="#000000" stroke="none">
<path d="M1902 2743 l2 -168 3 162 3 162 158 4 157 3 -162 2 -163 2 2 -167z"/>
<path d="M1990 2676 c0 -9 12 -16 33 -18 32 -3 32 -3 35 -64 3 -72 -12 -94
-53 -76 -18 8 -26 8 -31 0 -10 -15 24 -38 56 -38 47 0 60 26 60 123 l0 87 -50
0 c-37 0 -50 -4 -50 -14z"/>
<path d="M2160 2683 c0 -5 17 -52 37 -106 50 -128 62 -128 115 2 43 106 44
111 24 111 -9 0 -27 -33 -46 -82 -18 -46 -33 -84 -35 -86 -1 -1 -17 36 -34 83
-20 52 -38 85 -47 85 -8 0 -14 -3 -14 -7z"/>
<path d="M2427 2683 c-4 -3 -7 -51 -7 -105 l0 -98 75 0 c60 0 75 3 75 15 0 12
-13 15 -55 15 -54 0 -55 0 -55 30 0 29 1 30 50 30 38 0 50 4 50 15 0 11 -12
15 -50 15 -49 0 -50 1 -50 30 0 30 1 30 55 30 42 0 55 3 55 15 0 12 -14 15
-68 15 -38 0 -72 -3 -75 -7z"/>
<path d="M2660 2585 c0 -87 3 -105 15 -105 12 0 15 18 15 105 0 87 -3 105 -15
105 -12 0 -15 -18 -15 -105z"/>
<path d="M2845 2683 c-11 -3 -32 -17 -47 -31 -22 -20 -28 -35 -28 -69 0 -73
61 -116 139 -97 34 8 36 12 39 52 2 32 0 42 -12 42 -9 0 -16 -12 -18 -32 -3
-29 -7 -33 -35 -36 -24 -2 -39 3 -58 22 -59 59 1 146 81 116 30 -12 53 0 32
17 -17 14 -67 22 -93 16z"/>
<path d="M3107 2683 c-8 -13 -87 -193 -87 -198 0 -16 32 -1 42 20 10 22 17 25
64 25 49 0 54 -2 60 -25 4 -16 13 -25 25 -25 10 0 19 1 19 3 0 1 -20 47 -44
102 -39 90 -65 121 -79 98z m53 -115 c0 -5 -16 -8 -35 -8 -40 0 -40 -1 -19 48
l15 37 19 -35 c11 -19 19 -38 20 -42z"/>
<path d="M3290 2455 l0 -165 -162 -3 -163 -3 168 -2 167 -2 0 170 c0 94 -2
170 -5 170 -3 0 -5 -74 -5 -165z"/>
</g>
</svg>